<?xml version="1.0" ?><!DOCTYPE svg  PUBLIC '-//W3C//DTD SVG 1.1//EN'  'http://www.w3.org/Graphics/SVG/1.1/DTD/svg11.dtd'><svg enable-background="new 0 0 128 128" id="Layer_1" version="1.1" viewBox="0 0 128 128" xml:space="preserve" xmlns="http://www.w3.org/2000/svg" xmlns:xlink="http://www.w3.org/1999/xlink"><g><path d="M111.7,37.6H16.3c-1.7,0-3.3,0.7-4.4,1.8c-1.1,1.1-1.8,2.7-1.8,4.4v40.3c0,1.7,0.7,3.3,1.8,4.4   c1.1,1.1,2.7,1.8,4.4,1.8h95.3c1.7,0,3.3-0.7,4.4-1.8c1.1-1.1,1.8-2.7,1.8-4.4V43.9c0-1.7-0.7-3.3-1.8-4.4   C114.9,38.3,113.4,37.6,111.7,37.6z M22.8,42.2h82.4c1.1,0,2,0.9,2,2c0,1,0.4,2,1.1,2.6c0.7,0.7,1.6,1.1,2.6,1.1c1.1,0,2,0.9,2,2   v28c0,1.1-0.9,2-2,2c-1,0-2,0.4-2.6,1.1c-0.7,0.7-1.1,1.6-1.1,2.6c0,1.1-0.9,2-2,2H22.8c-1.1,0-2-0.9-2-2c0-1-0.4-2-1.1-2.6   C19,80.5,18.1,80,17,80c-1.1,0-2-0.9-2-2V50c0-1.1,0.9-2,2-2c1,0,2-0.4,2.6-1.1c0.7-0.7,1.1-1.6,1.1-2.6   C20.8,43.1,21.7,42.2,22.8,42.2z M62,61.6V56c-0.5,0.2-0.9,0.4-1.4,0.7c-1,0.7-1.5,1.5-1.5,2.6c0,0.5,0.1,0.9,0.3,1.2   c0.2,0.3,0.6,0.6,1.2,0.8C61.2,61.4,61.6,61.5,62,61.6z M66,65.8V72c0.6-0.2,1.2-0.4,1.7-0.7c1-0.6,1.5-1.4,1.5-2.5   c0-1.1-0.4-1.9-1.3-2.4C67.4,66.2,66.8,66,66,65.8z M62,50c0-1.1,0.9-2,2-2c1.1,0,2,0.9,2,2v2.3c1.9,0.1,3.5,0.5,4.8,1.1   c0.9,0.5,1.4,1,1.4,1.6c0,1.2-0.6,1.9-1.7,1.9c-0.3,0-1.1-0.2-2.4-0.6c-0.7-0.2-1.4-0.4-2.1-0.5v6.4c2,0.4,3.6,0.9,4.8,1.7   c1.5,1,2.2,2.5,2.2,4.6c0,2.2-0.8,4-2.5,5.3c-1.2,0.9-2.7,1.5-4.4,1.8V78c0,1.1-0.9,2-2,2c-1.1,0-2-0.9-2-2v-2.3   c-1.4-0.1-2.8-0.4-4.1-0.8C56,74.2,55,73.5,55,72.7c0-1.4,0.6-2.1,1.8-2.1c0.3,0,1.2,0.3,2.8,0.8c0.8,0.3,1.6,0.5,2.4,0.6v-7   c-0.3,0-0.5-0.1-0.7-0.1c-0.6-0.1-1.3-0.3-2.2-0.6c-0.8-0.3-1.5-0.6-2-1c-0.5-0.4-0.9-0.9-1.3-1.6c-0.4-0.7-0.5-1.4-0.5-2.3   c0-2,0.9-3.7,2.7-5.1c1.2-0.9,2.5-1.5,4-1.8V50z M76.5,51.5c-3.2-3.2-7.6-5.2-12.5-5.2c-4.9,0-9.3,2-12.5,5.2   c-3.2,3.2-5.2,7.6-5.2,12.5c0,4.9,2,9.3,5.2,12.5c3.2,3.2,7.6,5.2,12.5,5.2c4.9,0,9.3-2,12.5-5.2c3.2-3.2,5.2-7.6,5.2-12.5   C81.6,59.1,79.6,54.7,76.5,51.5z M51.6,81.7c-1-0.7-2-1.5-2.9-2.4c-3.9-3.9-6.3-9.3-6.3-15.3s2.4-11.4,6.3-15.3   c0.9-0.9,1.9-1.7,2.9-2.4H24.5c-0.4,1.3-1.1,2.5-2,3.5c-0.9,0.9-2.1,1.7-3.5,2v24.5c1.3,0.4,2.5,1.1,3.5,2c0.9,0.9,1.7,2.1,2,3.5   H51.6z M76.4,46.3c1,0.7,2,1.5,2.9,2.4c3.9,3.9,6.3,9.3,6.3,15.3s-2.4,11.4-6.3,15.3c-0.9,0.9-1.9,1.7-2.9,2.4h27.1   c0.4-1.3,1.1-2.5,2-3.5c0.9-0.9,2.1-1.7,3.5-2V51.7c-1.3-0.4-2.5-1.1-3.5-2c-0.9-0.9-1.7-2.1-2-3.5H76.4z M16.3,33.6h95.3   c2.8,0,5.4,1.2,7.3,3c1.9,1.9,3,4.4,3,7.3v40.3c0,2.8-1.2,5.4-3,7.3c-1.9,1.9-4.4,3-7.3,3H16.3c-2.8,0-5.4-1.2-7.3-3   c-1.9-1.9-3-4.4-3-7.3V43.9c0-2.8,1.2-5.4,3-7.3C10.9,34.8,13.5,33.6,16.3,33.6z" fill="#2B2D03"/><path clip-rule="evenodd" d="M105.2,85.8H22.8c-1.1,0-2-0.9-2-2c0-1-0.4-2-1.1-2.6   C19,80.5,18.1,80,17,80c-1.1,0-2-0.9-2-2V50c0-1.1,0.9-2,2-2c1,0,2-0.4,2.6-1.1c0.7-0.7,1.1-1.6,1.1-2.6c0-1.1,0.9-2,2-2h82.4   c1.1,0,2,0.9,2,2c0,1,0.4,2,1.1,2.6c0.7,0.7,1.6,1.1,2.6,1.1c1.1,0,2,0.9,2,2v28c0,1.1-0.9,2-2,2c-1,0-2,0.4-2.6,1.1   c-0.7,0.7-1.1,1.6-1.1,2.6C107.2,84.9,106.3,85.8,105.2,85.8z M16.3,90.4h95.3c1.7,0,3.3-0.7,4.4-1.8c1.1-1.1,1.8-2.7,1.8-4.4V43.9   c0-1.7-0.7-3.3-1.8-4.4c-1.1-1.1-2.7-1.8-4.4-1.8H16.3c-1.7,0-3.3,0.7-4.4,1.8c-1.1,1.1-1.8,2.7-1.8,4.4v40.3   c0,1.7,0.7,3.3,1.8,4.4C13.1,89.7,14.6,90.4,16.3,90.4z" fill="#C0D863" fill-rule="evenodd"/><path clip-rule="evenodd" d="M51.5,76.5c3.2,3.2,7.6,5.2,12.5,5.2c4.9,0,9.3-2,12.5-5.2   c3.2-3.2,5.2-7.6,5.2-12.5c0-4.9-2-9.3-5.2-12.5c-3.2-3.2-7.6-5.2-12.5-5.2c-4.9,0-9.3,2-12.5,5.2c-3.2,3.2-5.2,7.6-5.2,12.5   C46.4,68.9,48.4,73.3,51.5,76.5z M70.8,64c1.5,1,2.2,2.5,2.2,4.6c0,2.2-0.8,4-2.5,5.3c-1.2,0.9-2.7,1.5-4.4,1.8V78c0,1.1-0.9,2-2,2   c-1.1,0-2-0.9-2-2v-2.3c-1.4-0.1-2.8-0.4-4.1-0.8C56,74.2,55,73.5,55,72.7c0-1.4,0.6-2.1,1.8-2.1c0.3,0,1.2,0.3,2.8,0.8   c0.8,0.3,1.6,0.5,2.4,0.6v-7l-0.7-0.1c-0.6-0.1-1.3-0.3-2.2-0.6c-0.8-0.3-1.5-0.6-2-1c-0.5-0.4-0.9-0.9-1.3-1.6   c-0.4-0.7-0.5-1.4-0.5-2.3c0-2,0.9-3.7,2.7-5.1c1.2-0.9,2.5-1.5,4-1.8V50c0-1.1,0.9-2,2-2c1.1,0,2,0.9,2,2v2.3   c1.9,0.1,3.5,0.5,4.8,1.1c0.9,0.5,1.4,1,1.4,1.6c0,1.2-0.6,1.9-1.7,1.9c-0.3,0-1.1-0.2-2.4-0.6c-0.7-0.2-1.4-0.4-2.1-0.5v6.4   C68,62.6,69.6,63.2,70.8,64z" fill="#FFE64C" fill-rule="evenodd"/><path clip-rule="evenodd" d="M62,61.6V56c-0.5,0.2-0.9,0.4-1.4,0.7c-1,0.7-1.5,1.5-1.5,2.6   c0,0.5,0.1,0.9,0.3,1.2c0.2,0.3,0.6,0.6,1.2,0.8C61.2,61.4,61.6,61.5,62,61.6z" fill="#FFE64C" fill-rule="evenodd"/><path clip-rule="evenodd" d="M66,65.8V72c0.6-0.2,1.2-0.4,1.7-0.7c1-0.6,1.5-1.4,1.5-2.5   c0-1.1-0.4-1.9-1.3-2.4C67.4,66.2,66.8,66,66,65.8z" fill="#FFE64C" fill-rule="evenodd"/><path clip-rule="evenodd" d="M85.6,64c0,6-2.4,11.4-6.3,15.3c-0.9,0.9-1.9,1.7-2.9,2.4h27.1   c0.4-1.3,1.1-2.5,2-3.5c0.9-0.9,2.1-1.7,3.5-2V51.7c-1.3-0.4-2.5-1.1-3.5-2c-0.9-0.9-1.7-2.1-2-3.5H76.4c1,0.7,2,1.5,2.9,2.4   C83.2,52.6,85.6,58,85.6,64z" fill="#C0D863" fill-rule="evenodd"/><path clip-rule="evenodd" d="M48.7,79.3c-3.9-3.9-6.3-9.3-6.3-15.3s2.4-11.4,6.3-15.3   c0.9-0.9,1.9-1.7,2.9-2.4H24.5c-0.4,1.3-1.1,2.5-2,3.5c-0.9,0.9-2.1,1.7-3.5,2v24.5c1.3,0.4,2.5,1.1,3.5,2c0.9,0.9,1.7,2.1,2,3.5   h27.1C50.6,81,49.6,80.2,48.7,79.3z" fill="#C0D863" fill-rule="evenodd"/></g></svg>